<?xml version="1.0" encoding="utf-8"?>
<svg version="1.1" xmlns="http://www.w3.org/2000/svg" xmlns:xlink="http://www.w3.org/1999/xlink" viewBox="0 0 100 100" xml:space="preserve">
	<g>
		<path fill="#044C04" d="M19.3,97.6C9.9,97.6,2.2,90,2.2,80.5V18.8c0-9.4,7.7-17.1,17.1-17.1h61.8c9.4,0,17.1,7.7,17.1,17.1v61.8 c0,9.4-7.7,17.1-17.1,17.1H19.3z"/>
		<path fill="#006600" d="M81.1,3.6c8.3,0,15.1,6.8,15.1,15.1v61.8c0,8.3-6.8,15.1-15.1,15.1H19.3c-8.3,0-15.1-6.8-15.1-15.1V18.8 c0-8.3,6.8-15.1,15.1-15.1H81.1 M81.1-0.4H19.3C8.8-0.4,0.2,8.2,0.2,18.8v61.8c0,10.6,8.6,19.1,19.1,19.1h61.8 c10.6,0,19.1-8.6,19.1-19.1V18.8C100.2,8.2,91.7-0.4,81.1-0.4L81.1-0.4z"/>
	</g>
	<g>
		<path fill="#CCCC99" d="M46,80.4L26.8,26.4h-0.3v54.1h-9V18.8h15.3l17.4,51.4h0.3l16.8-51.4H83v61.6h-9.3V26.4h-0.3 C72.1,31,66,49,55,80.4H46z"/>
	</g>
</svg>
